<?xml version="1.0" encoding="UTF-8"?>
<!DOCTYPE svg PUBLIC "-//W3C//DTD SVG 1.1//EN" "http://www.w3.org/Graphics/SVG/1.1/DTD/svg11.dtd">
<svg xmlns="http://www.w3.org/2000/svg" version="1.1" width="144px" height="60px" style="shape-rendering:geometricPrecision; text-rendering:geometricPrecision; image-rendering:optimizeQuality; fill-rule:evenodd; clip-rule:evenodd" xmlns:xlink="http://www.w3.org/1999/xlink">
<g><path style="opacity:0.69" fill="#90732f" d="M 99.5,9.5 C 98.8166,11.1765 97.4832,11.8432 95.5,11.5C 92.509,11.1663 90.1757,12.1663 88.5,14.5C 87.5489,15.9187 87.2155,17.5853 87.5,19.5C 86.5,19.5 85.5,19.5 84.5,19.5C 85.1667,18.8333 85.8333,18.1667 86.5,17.5C 87.3624,9.55741 91.6957,6.89075 99.5,9.5 Z"/></g>
<g><path style="opacity:1" fill="#1f2029" d="M 115.5,8.5 C 116.833,8.5 117.5,9.16667 117.5,10.5C 115.382,13.4267 114.382,16.76 114.5,20.5C 113.508,20.3284 112.842,20.6618 112.5,21.5C 109.941,21.8016 107.607,21.4682 105.5,20.5C 108.292,20.3775 110.292,19.0442 111.5,16.5C 112.015,14.2488 113.015,12.2488 114.5,10.5C 115.338,10.1583 115.672,9.49162 115.5,8.5 Z"/></g>
<g><path style="opacity:1" fill="#df5320" d="M 95.5,11.5 C 93.9639,14.0922 91.6305,15.0922 88.5,14.5C 90.1757,12.1663 92.509,11.1663 95.5,11.5 Z"/></g>
<g><path style="opacity:0.773" fill="#5a4c25" d="M 115.5,8.5 C 115.672,9.49162 115.338,10.1583 114.5,10.5C 113.749,9.42654 112.749,9.25988 111.5,10C 110.336,12.3284 108.67,14.1618 106.5,15.5C 106.167,14.8333 105.833,14.1667 105.5,13.5C 106.167,13.5 106.5,13.1667 106.5,12.5C 108.121,12.2131 109.121,11.2131 109.5,9.5C 111.396,8.53443 113.396,8.2011 115.5,8.5 Z"/></g>
<g><path style="opacity:1" fill="#1e1d25" d="M 99.5,9.5 C 102.285,8.91618 103.952,9.91618 104.5,12.5C 100.828,15.6585 96.4944,17.1585 91.5,17C 89.7866,18.3782 88.4533,20.0448 87.5,22C 84.7383,23.0769 83.0717,22.2436 82.5,19.5C 83.1667,19.5 83.8333,19.5 84.5,19.5C 85.5,19.5 86.5,19.5 87.5,19.5C 87.2155,17.5853 87.5489,15.9187 88.5,14.5C 91.6305,15.0922 93.9639,14.0922 95.5,11.5C 97.4832,11.8432 98.8166,11.1765 99.5,9.5 Z"/></g>
<g><path style="opacity:1" fill="#dab03b" d="M 114.5,10.5 C 113.015,12.2488 112.015,14.2488 111.5,16.5C 111.265,15.9033 110.765,15.5699 110,15.5C 108.357,16.3146 106.857,17.3146 105.5,18.5C 105.557,17.391 105.89,16.391 106.5,15.5C 108.67,14.1618 110.336,12.3284 111.5,10C 112.749,9.25988 113.749,9.42654 114.5,10.5 Z"/></g>
<g><path style="opacity:0.824" fill="#aa6e36" d="M 117.5,10.5 C 119.259,14.5638 118.259,17.8971 114.5,20.5C 114.382,16.76 115.382,13.4267 117.5,10.5 Z"/></g>
<g><path style="opacity:1" fill="#e54e1e" d="M 111.5,16.5 C 110.292,19.0442 108.292,20.3775 105.5,20.5C 105.5,19.8333 105.5,19.1667 105.5,18.5C 106.857,17.3146 108.357,16.3146 110,15.5C 110.765,15.5699 111.265,15.9033 111.5,16.5 Z"/></g>
<g><path style="opacity:0.998" fill="#1f2126" d="M 105.5,13.5 C 105.833,14.1667 106.167,14.8333 106.5,15.5C 105.89,16.391 105.557,17.391 105.5,18.5C 105.5,19.1667 105.5,19.8333 105.5,20.5C 103.5,20.5 102.5,19.5 102.5,17.5C 102.799,15.5447 103.799,14.2114 105.5,13.5 Z"/></g>
<g><path style="opacity:0.19" fill="#8d6228" d="M 101.5,17.5 C 101.833,17.5 102.167,17.5 102.5,17.5C 102.5,19.5 103.5,20.5 105.5,20.5C 107.607,21.4682 109.941,21.8016 112.5,21.5C 112.5,22.1667 112.167,22.5 111.5,22.5C 108.258,24.0298 106.758,26.6964 107,30.5C 105.989,31.3366 104.822,31.67 103.5,31.5C 104.167,30.5 104.833,29.5 105.5,28.5C 106.85,27.1765 106.683,26.1765 105,25.5C 103.56,26.1476 102.06,26.4809 100.5,26.5C 98.7538,25.7505 97.7538,24.4172 97.5,22.5C 98.3228,20.4227 99.6561,18.756 101.5,17.5 Z M 100.5,22.5 C 101.386,21.2241 102.386,21.2241 103.5,22.5C 102.575,23.5624 101.575,23.5624 100.5,22.5 Z"/></g>
<g><path style="opacity:1" fill="#eabe34" d="M 86.5,17.5 C 85.8333,18.1667 85.1667,18.8333 84.5,19.5C 83.8333,19.5 83.1667,19.5 82.5,19.5C 80.2712,20.0553 78.6046,21.3886 77.5,23.5C 79.7928,23.0257 81.9594,23.6924 84,25.5C 87.0097,24.3853 89.6763,22.7186 92,20.5C 91.6416,23.4939 89.8083,25.3272 86.5,26C 91.6747,26.0113 94.3414,28.5113 94.5,33.5C 94.4646,39.9604 95.2979,39.9604 97,33.5C 97.7083,32.6195 98.5416,31.9528 99.5,31.5C 103.392,34.4377 106.892,33.771 110,29.5C 110.662,27.1873 111.162,24.854 111.5,22.5C 112.167,22.5 112.5,22.1667 112.5,21.5C 113.775,24.3962 113.775,27.3962 112.5,30.5C 109.125,34.5254 104.791,37.0254 99.5,38C 97.714,38.7845 96.214,39.9512 95,41.5C 95.0315,53.9218 90.8648,64.5885 82.5,73.5C 81.8333,73.5 81.5,73.8333 81.5,74.5C 80.7611,74.631 80.0944,74.4643 79.5,74C 88.1771,65.5085 91.8438,55.3418 90.5,43.5C 90.6122,39.6037 91.6122,35.937 93.5,32.5C 93.4712,30.9707 92.8045,29.804 91.5,29C 88.8333,29 86.1667,29 83.5,29C 82.3147,27.647 80.9814,26.4803 79.5,25.5C 77.6187,27.7337 75.2853,29.067 72.5,29.5C 72.1779,25.6496 73.5113,22.483 76.5,20C 75.944,19.6174 75.6107,19.1174 75.5,18.5C 79.1352,17.8857 82.8019,17.5524 86.5,17.5 Z M 100.5,22.5 C 101.575,23.5624 102.575,23.5624 103.5,22.5C 102.386,21.2241 101.386,21.2241 100.5,22.5 Z"/></g>
<g><path style="opacity:1" fill="#f2ab25" d="M 104.5,12.5 C 105.167,12.5 105.833,12.5 106.5,12.5C 106.5,13.1667 106.167,13.5 105.5,13.5C 103.799,14.2114 102.799,15.5447 102.5,17.5C 102.167,17.5 101.833,17.5 101.5,17.5C 95.4208,18.7766 94.0874,21.9432 97.5,27C 98.7494,27.7401 99.7494,27.5735 100.5,26.5C 102.06,26.4809 103.56,26.1476 105,25.5C 106.683,26.1765 106.85,27.1765 105.5,28.5C 100.811,28.3351 97.144,30.0018 94.5,33.5C 94.3414,28.5113 91.6747,26.0113 86.5,26C 89.8083,25.3272 91.6416,23.4939 92,20.5C 89.6763,22.7186 87.0097,24.3853 84,25.5C 81.9594,23.6924 79.7928,23.0257 77.5,23.5C 78.6046,21.3886 80.2712,20.0553 82.5,19.5C 83.0717,22.2436 84.7383,23.0769 87.5,22C 88.4533,20.0448 89.7866,18.3782 91.5,17C 96.4944,17.1585 100.828,15.6585 104.5,12.5 Z"/></g>
<g><path style="opacity:1" fill="#f0781d" d="M 101.5,17.5 C 99.6561,18.756 98.3228,20.4227 97.5,22.5C 97.7538,24.4172 98.7538,25.7505 100.5,26.5C 99.7494,27.5735 98.7494,27.7401 97.5,27C 94.0874,21.9432 95.4208,18.7766 101.5,17.5 Z"/></g>
<g><path style="opacity:1" fill="#c68439" d="M 79.5,27.5 C 80.1174,27.6107 80.6174,27.944 81,28.5C 81.498,31.4816 81.6646,34.4816 81.5,37.5C 83.7812,37.0773 85.4479,37.744 86.5,39.5C 84.7354,40.4614 82.7354,40.7947 80.5,40.5C 79.8902,39.609 79.5569,38.609 79.5,37.5C 80.1524,36.5514 80.4857,35.3847 80.5,34C 80.3917,32.3189 79.7251,31.1522 78.5,30.5C 79.1098,29.609 79.4431,28.609 79.5,27.5 Z"/></g>
<g><path style="opacity:1" fill="#f2771c" d="M 105.5,28.5 C 104.833,29.5 104.167,30.5 103.5,31.5C 102.167,31.5 100.833,31.5 99.5,31.5C 98.5416,31.9528 97.7083,32.6195 97,33.5C 95.2979,39.9604 94.4646,39.9604 94.5,33.5C 97.144,30.0018 100.811,28.3351 105.5,28.5 Z"/></g>
<g><path style="opacity:0.659" fill="#493922" d="M 111.5,22.5 C 111.162,24.854 110.662,27.1873 110,29.5C 106.892,33.771 103.392,34.4377 99.5,31.5C 100.833,31.5 102.167,31.5 103.5,31.5C 104.822,31.67 105.989,31.3366 107,30.5C 106.758,26.6964 108.258,24.0298 111.5,22.5 Z"/></g>
<g><path style="opacity:1" fill="#7e5f3a" d="M 70.5,37.5 C 67.9173,36.015 66.584,33.6817 66.5,30.5C 67.2646,30.0766 68.0979,29.7432 69,29.5C 68.9423,30.98 70.1089,31.8133 72.5,32C 71.7556,33.8148 71.0889,35.6481 70.5,37.5 Z"/></g>
<g><path style="opacity:1" fill="#3c3123" d="M 75.5,18.5 C 75.6107,19.1174 75.944,19.6174 76.5,20C 73.5113,22.483 72.1779,25.6496 72.5,29.5C 75.2853,29.067 77.6187,27.7337 79.5,25.5C 80.9814,26.4803 82.3147,27.647 83.5,29C 86.1667,29 88.8333,29 91.5,29C 92.8045,29.804 93.4712,30.9707 93.5,32.5C 91.6122,35.937 90.6122,39.6037 90.5,43.5C 89.6618,43.1583 89.3284,42.4916 89.5,41.5C 89.5983,38.7524 88.5983,38.0857 86.5,39.5C 85.4479,37.744 83.7812,37.0773 81.5,37.5C 81.6646,34.4816 81.498,31.4816 81,28.5C 80.6174,27.944 80.1174,27.6107 79.5,27.5C 78.8826,27.6107 78.3826,27.944 78,28.5C 77.502,31.4816 77.3354,34.4816 77.5,37.5C 75.8333,37.5 74.1667,37.5 72.5,37.5C 71.8333,37.5 71.1667,37.5 70.5,37.5C 71.0889,35.6481 71.7556,33.8148 72.5,32C 70.1089,31.8133 68.9423,30.98 69,29.5C 68.0979,29.7432 67.2646,30.0766 66.5,30.5C 66.5364,26.8001 68.2031,24.1335 71.5,22.5C 72.5,20.8333 73.8333,19.5 75.5,18.5 Z"/></g>
<g><path style="opacity:1" fill="#4d3720" d="M 78.5,30.5 C 79.7251,31.1522 80.3917,32.3189 80.5,34C 80.4857,35.3847 80.1524,36.5514 79.5,37.5C 78.5318,35.3926 78.1984,33.0593 78.5,30.5 Z"/></g>
<g><path style="opacity:1" fill="#815028" d="M 88.5,30.5 C 90.5592,29.3536 91.5592,30.1869 91.5,33C 90.4205,38.7957 88.7538,38.9624 86.5,33.5C 85.8076,34.0253 85.3076,34.6919 85,35.5C 84.51,34.2068 84.3433,32.8734 84.5,31.5C 86.7674,31.8545 88.1007,31.5211 88.5,30.5 Z"/></g>
<g><path style="opacity:1" fill="#d7b76d" d="M 79.5,27.5 C 79.4431,28.609 79.1098,29.609 78.5,30.5C 78.1984,33.0593 78.5318,35.3926 79.5,37.5C 79.5569,38.609 79.8902,39.609 80.5,40.5C 77.8127,40.6641 75.146,40.4974 72.5,40C 73.5,39.6667 74.5,39.3333 75.5,39C 74.2625,38.7679 73.2625,38.2679 72.5,37.5C 74.1667,37.5 75.8333,37.5 77.5,37.5C 77.3354,34.4816 77.502,31.4816 78,28.5C 78.3826,27.944 78.8826,27.6107 79.5,27.5 Z"/></g>
<g><path style="opacity:0.525" fill="#604128" d="M 112.5,21.5 C 112.842,20.6618 113.508,20.3284 114.5,20.5C 114.13,27.2384 114.13,33.905 114.5,40.5C 113.833,40.1667 113.167,39.8333 112.5,39.5C 110.123,38.3279 107.79,38.6612 105.5,40.5C 105.5,39.8333 105.167,39.5 104.5,39.5C 109.25,38.4133 111.917,35.4133 112.5,30.5C 113.775,27.3962 113.775,24.3962 112.5,21.5 Z"/></g>
<g><path style="opacity:1" fill="#eeb92f" d="M 71.5,22.5 C 68.2031,24.1335 66.5364,26.8001 66.5,30.5C 65.8614,31.0968 65.528,31.9302 65.5,33C 66.6158,35.4064 67.6158,37.9064 68.5,40.5C 67.5705,42.6061 66.4038,44.6061 65,46.5C 64.9124,51.6561 64.079,56.6561 62.5,61.5C 56.6929,52.854 49.3595,51.354 40.5,57C 34.6396,65.1824 35.6396,72.5157 43.5,79C 42.2068,79.49 40.8734,79.6567 39.5,79.5C 35.6763,73.7756 34.5096,67.4423 36,60.5C 38.3852,57.6215 40.5518,54.6215 42.5,51.5C 42.9938,48.6694 43.9938,46.6694 45.5,45.5C 45.062,49.9083 47.062,51.5749 51.5,50.5C 51.3367,48.1432 51.5034,45.8098 52,43.5C 53.8003,41.8553 55.8003,40.522 58,39.5C 58.4828,38.552 58.6495,37.552 58.5,36.5C 60.9041,32.6232 62.2374,28.6232 62.5,24.5C 65.4021,23.4222 68.4021,22.7556 71.5,22.5 Z"/></g>
<g><path style="opacity:1" fill="#8c582c" d="M 70.5,37.5 C 71.1667,37.5 71.8333,37.5 72.5,37.5C 73.2625,38.2679 74.2625,38.7679 75.5,39C 74.5,39.3333 73.5,39.6667 72.5,40C 75.146,40.4974 77.8127,40.6641 80.5,40.5C 82.7354,40.7947 84.7354,40.4614 86.5,39.5C 88.5983,38.0857 89.5983,38.7524 89.5,41.5C 82.8333,41.5 76.1667,41.5 69.5,41.5C 69.4326,40.0413 69.7659,38.7079 70.5,37.5 Z"/></g>
<g><path style="opacity:1" fill="#2e2020" d="M 104.5,39.5 C 105.167,39.5 105.5,39.8333 105.5,40.5C 103.5,42.1667 101.5,43.8333 99.5,45.5C 98.6851,46.4293 97.8518,47.4293 97,48.5C 96.3659,42.9625 98.8659,39.9625 104.5,39.5 Z"/></g>
<g><path style="opacity:1" fill="#d59531" d="M 112.5,39.5 C 110.289,42.2848 107.623,44.6181 104.5,46.5C 104.167,46.5 103.833,46.5 103.5,46.5C 103.5,45.8333 103.167,45.5 102.5,45.5C 101.798,44.8843 100.798,44.8843 99.5,45.5C 101.5,43.8333 103.5,42.1667 105.5,40.5C 107.79,38.6612 110.123,38.3279 112.5,39.5 Z"/></g>
<g><path style="opacity:1" fill="#d7b449" d="M 114.5,41.5 C 115.833,43.5 115.833,45.5 114.5,47.5C 114.565,47.0618 114.399,46.7284 114,46.5C 111.022,46.9806 109.189,48.6472 108.5,51.5C 107.833,51.5 107.167,51.5 106.5,51.5C 106.913,48.5849 108.579,46.7516 111.5,46C 113.141,44.871 114.141,43.371 114.5,41.5 Z"/></g>
<g><path style="opacity:1" fill="#d05f29" d="M 114.5,47.5 C 113.55,50.1149 111.883,52.1149 109.5,53.5C 108.662,53.1583 108.328,52.4916 108.5,51.5C 109.189,48.6472 111.022,46.9806 114,46.5C 114.399,46.7284 114.565,47.0618 114.5,47.5 Z"/></g>
<g><path style="opacity:0.788" fill="#fefffe" d="M 142.5,49.5 C 145.187,49.3359 147.854,49.5026 150.5,50C 152.585,51.5264 152.585,53.3598 150.5,55.5C 145.995,53.3235 143.328,54.6569 142.5,59.5C 143.392,65.07 146.392,66.7367 151.5,64.5C 152.116,68.4948 150.45,70.4948 146.5,70.5C 138.559,69.7185 135.392,65.3852 137,57.5C 137.625,53.8907 139.458,51.224 142.5,49.5 Z"/></g>
<g><path style="opacity:0.795" fill="#fefffe" d="M 153.5,49.5 C 155.5,49.5 157.5,49.5 159.5,49.5C 159.5,52.1667 159.5,54.8333 159.5,57.5C 161.5,57.5 163.5,57.5 165.5,57.5C 165.5,54.8333 165.5,52.1667 165.5,49.5C 167.5,49.5 169.5,49.5 171.5,49.5C 171.5,56.1667 171.5,62.8333 171.5,69.5C 169.5,69.5 167.5,69.5 165.5,69.5C 165.5,67.1667 165.5,64.8333 165.5,62.5C 163.5,62.5 161.5,62.5 159.5,62.5C 159.5,64.8333 159.5,67.1667 159.5,69.5C 157.5,69.5 155.5,69.5 153.5,69.5C 154.18,62.8727 154.18,56.206 153.5,49.5 Z"/></g>
<g><path style="opacity:0.759" fill="#fefffe" d="M 174.5,49.5 C 176.5,49.5 178.5,49.5 180.5,49.5C 180.5,56.1667 180.5,62.8333 180.5,69.5C 178.5,69.5 176.5,69.5 174.5,69.5C 174.5,62.8333 174.5,56.1667 174.5,49.5 Z"/></g>
<g><path style="opacity:0.831" fill="#fefffe" d="M 183.5,49.5 C 185.5,49.5 187.5,49.5 189.5,49.5C 189.5,54.8333 189.5,60.1667 189.5,65.5C 191.5,65.5 193.5,65.5 195.5,65.5C 195.5,66.8333 195.5,68.1667 195.5,69.5C 191.5,69.5 187.5,69.5 183.5,69.5C 184.054,62.8819 184.054,56.2153 183.5,49.5 Z"/></g>
<g><path style="opacity:0.893" fill="#fefffe" d="M 197.5,49.5 C 199.604,49.2011 201.604,49.5344 203.5,50.5C 202.54,56.7734 202.207,63.1067 202.5,69.5C 200.833,69.5 199.167,69.5 197.5,69.5C 197.5,62.8333 197.5,56.1667 197.5,49.5 Z"/></g>
<g><path style="opacity:0.808" fill="#fefffe" d="M 205.5,49.5 C 210.5,49.5 215.5,49.5 220.5,49.5C 219.612,55.4387 216.946,60.6054 212.5,65C 215.553,65.1786 218.553,65.6786 221.5,66.5C 220.754,67.7362 220.421,69.0695 220.5,70.5C 215.818,69.2969 211.151,69.2969 206.5,70.5C 205.359,68.5787 205.192,66.5787 206,64.5C 208.5,61.3333 211,58.1667 213.5,55C 210.854,54.5026 208.187,54.3359 205.5,54.5C 205.5,52.8333 205.5,51.1667 205.5,49.5 Z"/></g>
<g><path style="opacity:0.831" fill="#fefffe" d="M 223.5,49.5 C 225.167,49.5 226.833,49.5 228.5,49.5C 227.81,58.2462 229.476,58.5795 233.5,50.5C 235.5,49.1667 237.5,49.1667 239.5,50.5C 237.694,53.472 235.694,56.3053 233.5,59C 235.955,62.0777 238.289,65.2444 240.5,68.5C 238.684,69.9424 236.684,70.4424 234.5,70C 232.667,67.5 230.833,65 229,62.5C 228.503,64.8098 228.337,67.1432 228.5,69.5C 226.833,69.5 225.167,69.5 223.5,69.5C 223.5,62.8333 223.5,56.1667 223.5,49.5 Z"/></g>
<g><path style="opacity:0.908" fill="#fefffe" d="M 241.5,49.5 C 243.167,49.5 244.833,49.5 246.5,49.5C 246.5,56.1667 246.5,62.8333 246.5,69.5C 244.833,69.5 243.167,69.5 241.5,69.5C 241.5,62.8333 241.5,56.1667 241.5,49.5 Z"/></g>
<g><path style="opacity:0.83" fill="#fefffe" d="M 250.5,49.5 C 252.527,49.3379 254.527,49.5045 256.5,50C 258.333,53.1667 260.167,56.3333 262,59.5C 262.498,56.1832 262.665,52.8499 262.5,49.5C 264.5,49.5 266.5,49.5 268.5,49.5C 267.724,56.1373 267.391,62.8039 267.5,69.5C 265.473,69.6621 263.473,69.4955 261.5,69C 259.667,65.8333 257.833,62.6667 256,59.5C 255.502,62.8168 255.335,66.1501 255.5,69.5C 253.833,69.5 252.167,69.5 250.5,69.5C 250.5,62.8333 250.5,56.1667 250.5,49.5 Z"/></g>
<g><path style="opacity:0.8" fill="#fefffe" d="M 276.5,49.5 C 279.777,49.2161 282.943,49.5495 286,50.5C 286.72,52.1124 286.554,53.6124 285.5,55C 276.821,52.8438 273.987,56.0105 277,64.5C 278.356,65.3802 279.856,65.7135 281.5,65.5C 281.5,63.8333 281.5,62.1667 281.5,60.5C 283.167,60.5 284.833,60.5 286.5,60.5C 286.5,63.5 286.5,66.5 286.5,69.5C 271.86,72.224 267.027,66.5574 272,52.5C 273.652,51.6006 275.152,50.6006 276.5,49.5 Z"/></g>
<g><path style="opacity:1" fill="#c11120" d="M 58.5,80.5 C 52.5043,83.4668 46.1709,84.1335 39.5,82.5C 39.5,82.1667 39.5,81.8333 39.5,81.5C 41.8568,81.6633 44.1902,81.4966 46.5,81C 48.6526,80.9005 50.3192,80.0672 51.5,78.5C 52.9217,78.2914 54.255,77.7914 55.5,77C 59.4473,73.2242 63.114,69.3909 66.5,65.5C 65.7577,70.0851 63.2577,73.4184 59,75.5C 58.3123,76.3317 58.479,76.9984 59.5,77.5C 67.8553,71.3104 74.1886,63.477 78.5,54C 77.2625,53.7679 76.2625,53.2679 75.5,52.5C 77.0269,52.573 78.0269,51.9063 78.5,50.5C 79.29,49.3915 79.79,48.0581 80,46.5C 81.0113,47.3366 82.1779,47.67 83.5,47.5C 83.8592,52.5816 82.6926,57.2482 80,61.5C 76.8533,64.3173 74.02,67.484 71.5,71C 67.5018,74.6618 63.1685,77.8284 58.5,80.5 Z"/></g>
<g><path style="opacity:1" fill="#f6bb30" d="M 102.5,45.5 C 103.167,45.5 103.5,45.8333 103.5,46.5C 101.591,51.729 99.2575,56.729 96.5,61.5C 96.3053,63.7247 97.1387,65.3913 99,66.5C 100.749,66.2517 101.582,65.2517 101.5,63.5C 102.246,58.5208 102.912,58.8542 103.5,64.5C 100.326,69.7525 97.1597,69.7525 94,64.5C 92.6155,67.3859 90.4488,69.3859 87.5,70.5C 91.3355,66.1728 94.1689,61.1728 96,55.5C 97.5122,54.7433 98.8455,53.7433 100,52.5C 100.379,49.9699 101.213,47.6365 102.5,45.5 Z"/></g>
<g><path style="opacity:1" fill="#2d2527" d="M 112.5,39.5 C 113.167,39.8333 113.833,40.1667 114.5,40.5C 114.5,40.8333 114.5,41.1667 114.5,41.5C 114.141,43.371 113.141,44.871 111.5,46C 108.579,46.7516 106.913,48.5849 106.5,51.5C 106.451,54.0991 105.451,56.2658 103.5,58C 106.272,62.502 105.938,66.6687 102.5,70.5C 102.167,70.5 101.833,70.5 101.5,70.5C 102.73,68.7028 103.396,66.7028 103.5,64.5C 102.912,58.8542 102.246,58.5208 101.5,63.5C 100.5,63.5 99.5,63.5 98.5,63.5C 98.7967,59.6743 100.63,56.6743 104,54.5C 104.497,51.854 104.664,49.1873 104.5,46.5C 107.623,44.6181 110.289,42.2848 112.5,39.5 Z"/></g>
<g><path style="opacity:1" fill="#f1701b" d="M 112.5,30.5 C 111.917,35.4133 109.25,38.4133 104.5,39.5C 98.8659,39.9625 96.3659,42.9625 97,48.5C 97.8518,47.4293 98.6851,46.4293 99.5,45.5C 100.798,44.8843 101.798,44.8843 102.5,45.5C 101.213,47.6365 100.379,49.9699 100,52.5C 98.8455,53.7433 97.5122,54.7433 96,55.5C 94.1689,61.1728 91.3355,66.1728 87.5,70.5C 86.4937,71.3957 86.4937,72.0623 87.5,72.5C 86.0813,73.4511 84.4147,73.7845 82.5,73.5C 90.8648,64.5885 95.0315,53.9218 95,41.5C 96.214,39.9512 97.714,38.7845 99.5,38C 104.791,37.0254 109.125,34.5254 112.5,30.5 Z"/></g>
<g><path style="opacity:1" fill="#860e1c" d="M 69.5,47.5 C 69.56,48.0431 69.8933,48.3764 70.5,48.5C 72.2137,46.6496 74.2137,45.3163 76.5,44.5C 78.5648,44.5172 80.5648,44.8505 82.5,45.5C 83.5,45.8333 84.1667,46.5 84.5,47.5C 84.5,48.1667 84.5,48.8333 84.5,49.5C 85.0065,50.8589 86.0065,51.8589 87.5,52.5C 85.8606,57.1122 83.6939,61.4455 81,65.5C 77.9666,69.0315 74.8,72.3648 71.5,75.5C 67.7114,78.5601 63.3781,80.2268 58.5,80.5C 63.1685,77.8284 67.5018,74.6618 71.5,71C 74.02,67.484 76.8533,64.3173 80,61.5C 82.6926,57.2482 83.8592,52.5816 83.5,47.5C 82.1779,47.67 81.0113,47.3366 80,46.5C 79.79,48.0581 79.29,49.3915 78.5,50.5C 78.5,49.1667 78.5,47.8333 78.5,46.5C 75.0897,46.3838 73.7564,48.0504 74.5,51.5C 73.7321,50.7375 73.2321,49.7375 73,48.5C 72.6851,51.1468 71.5184,51.8135 69.5,50.5C 68.8182,51.2427 68.1515,51.9094 67.5,52.5C 67.5,50.5 67.5,48.5 67.5,46.5C 67.369,45.7611 67.5357,45.0944 68,44.5C 68.2321,45.7375 68.7321,46.7375 69.5,47.5 Z"/></g>
<g><path style="opacity:1" fill="#d9bfc3" d="M 67.5,46.5 C 67.5,48.5 67.5,50.5 67.5,52.5C 67.3444,55.0661 67.6777,57.5661 68.5,60C 67.6805,61.8003 67.0138,63.6336 66.5,65.5C 63.114,69.3909 59.4473,73.2242 55.5,77C 54.255,77.7914 52.9217,78.2914 51.5,78.5C 62.1646,70.5042 67.4979,59.8375 67.5,46.5 Z"/></g>
<g><path style="opacity:1" fill="#ec691e" d="M 103.5,46.5 C 103.833,46.5 104.167,46.5 104.5,46.5C 104.664,49.1873 104.497,51.854 104,54.5C 100.63,56.6743 98.7967,59.6743 98.5,63.5C 99.5,63.5 100.5,63.5 101.5,63.5C 101.582,65.2517 100.749,66.2517 99,66.5C 97.1387,65.3913 96.3053,63.7247 96.5,61.5C 99.2575,56.729 101.591,51.729 103.5,46.5 Z"/></g>
<g><path style="opacity:0.371" fill="#5f5650" d="M 53.5,32.5 C 43.8554,37.3123 36.6888,44.6456 32,54.5C 29.6294,63.3665 30.1294,72.0332 33.5,80.5C 26.4026,79.8581 22.0693,82.8581 20.5,89.5C 21.1499,94.149 21.6499,98.8157 22,103.5C 23.4813,104.471 24.3146,105.804 24.5,107.5C 22.5891,107.426 21.4224,106.426 21,104.5C 20.0657,101.864 19.2324,99.1971 18.5,96.5C 19.8333,94.1667 19.8333,91.8333 18.5,89.5C 19.2945,82.4242 23.2945,79.0908 30.5,79.5C 26.1276,64.8343 28.7943,51.6677 38.5,40C 43.1082,36.6359 48.1082,34.1359 53.5,32.5 Z"/></g>
<g><path style="opacity:1" fill="#eb332a" d="M 74.5,51.5 C 74.5,52.1667 74.8333,52.5 75.5,52.5C 76.2625,53.2679 77.2625,53.7679 78.5,54C 74.1886,63.477 67.8553,71.3104 59.5,77.5C 58.479,76.9984 58.3123,76.3317 59,75.5C 63.2577,73.4184 65.7577,70.0851 66.5,65.5C 67.0138,63.6336 67.6805,61.8003 68.5,60C 67.6777,57.5661 67.3444,55.0661 67.5,52.5C 68.1515,51.9094 68.8182,51.2427 69.5,50.5C 71.5184,51.8135 72.6851,51.1468 73,48.5C 73.2321,49.7375 73.7321,50.7375 74.5,51.5 Z"/></g>
<g><path style="opacity:1" fill="#1e232d" d="M 62.5,24.5 C 62.2374,28.6232 60.9041,32.6232 58.5,36.5C 56.5887,37.075 54.922,38.075 53.5,39.5C 52.2618,38.5876 50.9285,38.4209 49.5,39C 43.0726,42.9189 38.7393,48.4189 36.5,55.5C 35.0337,56.347 34.2004,57.6803 34,59.5C 32.9109,66.111 33.7442,72.4444 36.5,78.5C 37.325,79.3857 38.325,79.719 39.5,79.5C 40.8734,79.6567 42.2068,79.49 43.5,79C 35.6396,72.5157 34.6396,65.1824 40.5,57C 49.3595,51.354 56.6929,52.854 62.5,61.5C 64.079,56.6561 64.9124,51.6561 65,46.5C 66.4038,44.6061 67.5705,42.6061 68.5,40.5C 67.6158,37.9064 66.6158,35.4064 65.5,33C 65.528,31.9302 65.8614,31.0968 66.5,30.5C 66.584,33.6817 67.9173,36.015 70.5,37.5C 69.7659,38.7079 69.4326,40.0413 69.5,41.5C 76.1667,41.5 82.8333,41.5 89.5,41.5C 89.3284,42.4916 89.6618,43.1583 90.5,43.5C 91.8438,55.3418 88.1771,65.5085 79.5,74C 80.0944,74.4643 80.7611,74.631 81.5,74.5C 81.5,75.1667 81.5,75.8333 81.5,76.5C 81.1667,76.5 80.8333,76.5 80.5,76.5C 79.1667,75.8333 78.1667,74.8333 77.5,73.5C 85.1988,66.107 89.0321,57.107 89,46.5C 88.4785,49.5824 86.9785,50.5824 84.5,49.5C 84.5,48.8333 84.5,48.1667 84.5,47.5C 86.5747,48.1548 87.4081,47.1548 87,44.5C 85.4667,44.0563 83.9667,43.723 82.5,43.5C 81.537,43.9698 81.537,44.6365 82.5,45.5C 80.5648,44.8505 78.5648,44.5172 76.5,44.5C 76.6107,43.8826 76.944,43.3826 77.5,43C 75.1667,42.3333 72.8333,42.3333 70.5,43C 69.6198,44.3561 69.2865,45.8561 69.5,47.5C 68.7321,46.7375 68.2321,45.7375 68,44.5C 67.5357,45.0944 67.369,45.7611 67.5,46.5C 67.4979,59.8375 62.1646,70.5042 51.5,78.5C 47.3855,79.5099 43.3855,80.5099 39.5,81.5C 39.5,81.8333 39.5,82.1667 39.5,82.5C 39.8333,83.1667 40.1667,83.8333 40.5,84.5C 38.2843,83.7974 36.451,82.4641 35,80.5C 28.4785,64.7516 31.6451,51.2516 44.5,40C 49.6684,37.7233 54.5018,34.8899 59,31.5C 59.346,29.7818 59.846,28.1151 60.5,26.5C 59.7997,26.2129 59.1331,25.8795 58.5,25.5C 59.5676,24.5655 60.901,24.2322 62.5,24.5 Z"/></g>
<g><path style="opacity:1" fill="#de6b23" d="M 42.5,51.5 C 40.5518,54.6215 38.3852,57.6215 36,60.5C 34.5096,67.4423 35.6763,73.7756 39.5,79.5C 38.325,79.719 37.325,79.3857 36.5,78.5C 33.7442,72.4444 32.9109,66.111 34,59.5C 34.2004,57.6803 35.0337,56.347 36.5,55.5C 37.3285,56.3324 38.1618,55.999 39,54.5C 40.2754,52.2827 41.2754,49.9494 42,47.5C 42.49,48.7932 42.6567,50.1266 42.5,51.5 Z"/></g>
<g><path style="opacity:1" fill="#38152a" d="M 77.5,73.5 C 76.2058,74.2899 75.0391,75.2899 74,76.5C 73.3292,75.7476 72.4959,75.4142 71.5,75.5C 74.8,72.3648 77.9666,69.0315 81,65.5C 83.6939,61.4455 85.8606,57.1122 87.5,52.5C 86.0065,51.8589 85.0065,50.8589 84.5,49.5C 86.9785,50.5824 88.4785,49.5824 89,46.5C 89.0321,57.107 85.1988,66.107 77.5,73.5 Z"/></g>
<g><path style="opacity:1" fill="#f7e5e5" d="M 78.5,50.5 C 78.0269,51.9063 77.0269,52.573 75.5,52.5C 74.8333,52.5 74.5,52.1667 74.5,51.5C 73.7564,48.0504 75.0897,46.3838 78.5,46.5C 78.5,47.8333 78.5,49.1667 78.5,50.5 Z"/></g>
<g><path style="opacity:1" fill="#f6721b" d="M 58.5,36.5 C 58.6495,37.552 58.4828,38.552 58,39.5C 55.8003,40.522 53.8003,41.8553 52,43.5C 51.5034,45.8098 51.3367,48.1432 51.5,50.5C 47.062,51.5749 45.062,49.9083 45.5,45.5C 47.8054,43.0144 50.4721,41.0144 53.5,39.5C 54.922,38.075 56.5887,37.075 58.5,36.5 Z"/></g>
<g><path style="opacity:1" fill="#59974a" d="M 76.5,44.5 C 74.2137,45.3163 72.2137,46.6496 70.5,48.5C 69.8933,48.3764 69.56,48.0431 69.5,47.5C 69.2865,45.8561 69.6198,44.3561 70.5,43C 72.8333,42.3333 75.1667,42.3333 77.5,43C 76.944,43.3826 76.6107,43.8826 76.5,44.5 Z"/></g>
<g><path style="opacity:1" fill="#f5731a" d="M 63.5,38.5 C 64.675,38.281 65.675,38.6143 66.5,39.5C 62.2799,43.1793 60.4465,47.846 61,53.5C 60.3333,52.1667 59.6667,50.8333 59,49.5C 58.6827,51.3008 58.016,51.6341 57,50.5C 56.2189,49.2713 55.7189,47.938 55.5,46.5C 57.8544,43.4789 60.5211,40.8123 63.5,38.5 Z"/></g>
<g><path style="opacity:1" fill="#4d9341" d="M 84.5,47.5 C 84.1667,46.5 83.5,45.8333 82.5,45.5C 81.537,44.6365 81.537,43.9698 82.5,43.5C 83.9667,43.723 85.4667,44.0563 87,44.5C 87.4081,47.1548 86.5747,48.1548 84.5,47.5 Z"/></g>
<g><path style="opacity:1" fill="#e2912c" d="M 53.5,39.5 C 50.4721,41.0144 47.8054,43.0144 45.5,45.5C 43.9938,46.6694 42.9938,48.6694 42.5,51.5C 42.6567,50.1266 42.49,48.7932 42,47.5C 41.2754,49.9494 40.2754,52.2827 39,54.5C 38.1618,55.999 37.3285,56.3324 36.5,55.5C 38.7393,48.4189 43.0726,42.9189 49.5,39C 50.9285,38.4209 52.2618,38.5876 53.5,39.5 Z"/></g>
<g><path style="opacity:1" fill="#d6d0ba" d="M 58.5,25.5 C 59.1331,25.8795 59.7997,26.2129 60.5,26.5C 59.846,28.1151 59.346,29.7818 59,31.5C 54.5018,34.8899 49.6684,37.7233 44.5,40C 31.6451,51.2516 28.4785,64.7516 35,80.5C 36.451,82.4641 38.2843,83.7974 40.5,84.5C 39.7261,85.1471 38.7261,85.4805 37.5,85.5C 33.724,83.6946 29.724,83.1946 25.5,84C 24.6667,84.8333 23.8333,85.6667 23,86.5C 19.0362,102.411 25.2028,109.578 41.5,108C 61.1763,114.515 77.843,109.849 91.5,94C 95.8206,93.501 100.154,93.3343 104.5,93.5C 104.5,94.8333 104.5,96.1667 104.5,97.5C 108.994,97.8373 111.828,95.8373 113,91.5C 113.667,86.5 113.667,81.5 113,76.5C 110.052,73.405 106.552,71.405 102.5,70.5C 105.938,66.6687 106.272,62.502 103.5,58C 105.451,56.2658 106.451,54.0991 106.5,51.5C 107.167,51.5 107.833,51.5 108.5,51.5C 108.328,52.4916 108.662,53.1583 109.5,53.5C 108.971,55.5834 107.971,57.4167 106.5,59C 109.167,62.3333 109.167,65.6667 106.5,69C 114.567,70.7832 117.567,75.7832 115.5,84C 117.359,94.106 113.359,99.4393 103.5,100C 102.859,97.6161 101.359,96.1161 99,95.5C 96.536,96.1608 94.036,96.6608 91.5,97C 85.2303,105.439 76.897,110.772 66.5,113C 52.1394,113.822 38.1394,111.988 24.5,107.5C 24.3146,105.804 23.4813,104.471 22,103.5C 21.6499,98.8157 21.1499,94.149 20.5,89.5C 22.0693,82.8581 26.4026,79.8581 33.5,80.5C 30.1294,72.0332 29.6294,63.3665 32,54.5C 36.6888,44.6456 43.8554,37.3123 53.5,32.5C 55.9145,30.66 57.5812,28.3267 58.5,25.5 Z"/></g>
<g><path style="opacity:1" fill="#291d2e" d="M 101.5,70.5 C 101.833,70.5 102.167,70.5 102.5,70.5C 106.552,71.405 110.052,73.405 113,76.5C 113.667,81.5 113.667,86.5 113,91.5C 111.828,95.8373 108.994,97.8373 104.5,97.5C 104.5,96.1667 104.5,94.8333 104.5,93.5C 100.154,93.3343 95.8206,93.501 91.5,94C 77.843,109.849 61.1763,114.515 41.5,108C 25.2028,109.578 19.0362,102.411 23,86.5C 23.8333,85.6667 24.6667,84.8333 25.5,84C 29.724,83.1946 33.724,83.6946 37.5,85.5C 38.7261,85.4805 39.7261,85.1471 40.5,84.5C 40.1667,83.8333 39.8333,83.1667 39.5,82.5C 46.1709,84.1335 52.5043,83.4668 58.5,80.5C 63.3781,80.2268 67.7114,78.5601 71.5,75.5C 72.4959,75.4142 73.3292,75.7476 74,76.5C 75.0391,75.2899 76.2058,74.2899 77.5,73.5C 78.1667,74.8333 79.1667,75.8333 80.5,76.5C 77.2119,77.0986 74.2119,78.4319 71.5,80.5C 69.5786,81.3627 67.5786,82.0293 65.5,82.5C 64.5084,82.3284 63.8417,82.6618 63.5,83.5C 62.391,83.5569 61.391,83.8902 60.5,84.5C 58.1016,84.2594 56.1016,84.9261 54.5,86.5C 53.5,86.5 52.5,86.5 51.5,86.5C 50.209,86.2627 49.209,86.596 48.5,87.5C 47.8333,87.5 47.1667,87.5 46.5,87.5C 43.8333,87.5 41.1667,87.5 38.5,87.5C 37.8333,87.5 37.1667,87.5 36.5,87.5C 35.8333,87.5 35.1667,87.5 34.5,87.5C 32.0738,85.7815 29.4071,85.2815 26.5,86C 25.6198,87.3561 25.2865,88.8561 25.5,90.5C 24.9749,95.1398 25.6416,99.4731 27.5,103.5C 34.7768,105.519 42.1102,105.852 49.5,104.5C 50.1667,104.5 50.8333,104.5 51.5,104.5C 52.791,104.737 53.791,104.404 54.5,103.5C 56.0418,102.699 57.7085,102.366 59.5,102.5C 61.0269,102.573 62.0269,101.906 62.5,100.5C 62.8333,100.5 63.1667,100.5 63.5,100.5C 64.791,100.737 65.791,100.404 66.5,99.5C 67.391,98.8902 68.391,98.5569 69.5,98.5C 70.8734,98.6567 72.2068,98.49 73.5,98C 75.7582,97.124 77.7582,95.9573 79.5,94.5C 83.6516,94.0042 87.6516,93.0042 91.5,91.5C 92.1667,91.5 92.8333,91.5 93.5,91.5C 93.8333,91.5 94.1667,91.5 94.5,91.5C 98.5546,91.1758 102.555,91.5091 106.5,92.5C 105.506,95.3992 106.506,96.0659 109.5,94.5C 110.192,93.9747 110.692,93.3081 111,92.5C 111.817,86.9836 111.651,81.6503 110.5,76.5C 109.29,76.0679 108.29,75.4013 107.5,74.5C 105.19,73.8362 102.69,73.5029 100,73.5C 95.5731,73.3938 91.4064,74.0605 87.5,75.5C 87.1667,75.5 86.8333,75.5 86.5,75.5C 85.5084,75.3284 84.8417,75.6618 84.5,76.5C 83.8333,76.5 83.1667,76.5 82.5,76.5C 82.1667,76.5 81.8333,76.5 81.5,76.5C 81.5,75.8333 81.5,75.1667 81.5,74.5C 81.5,73.8333 81.8333,73.5 82.5,73.5C 84.4147,73.7845 86.0813,73.4511 87.5,72.5C 92.2214,71.9627 96.888,71.2961 101.5,70.5 Z"/></g>
<g><path style="opacity:1" fill="#edc258" d="M 52.5,92.5 C 53.1667,92.5 53.8333,92.5 54.5,92.5C 54.5,95.1667 54.5,97.8333 54.5,100.5C 55.9305,100.579 57.2638,100.246 58.5,99.5C 59.3857,100.325 59.719,101.325 59.5,102.5C 57.7085,102.366 56.0418,102.699 54.5,103.5C 52.5864,100.316 51.9197,96.649 52.5,92.5 Z"/></g>
<g><path style="opacity:1" fill="#f1c855" d="M 25.5,90.5 C 26.1667,90.5 26.8333,90.5 27.5,90.5C 27.5,93.8333 27.5,97.1667 27.5,100.5C 29.9294,100.116 32.2627,99.449 34.5,98.5C 34.5,100.167 34.5,101.833 34.5,103.5C 32.1667,103.5 29.8333,103.5 27.5,103.5C 25.6416,99.4731 24.9749,95.1398 25.5,90.5 Z"/></g>
<g><path style="opacity:1" fill="#73192a" d="M 75.5,103.5 C 73.8984,101.926 71.8984,101.259 69.5,101.5C 73.9449,99.8017 78.6116,98.4683 83.5,97.5C 83.8333,97.8333 84.1667,98.1667 84.5,98.5C 81.9477,101.07 78.9477,102.737 75.5,103.5 Z"/></g>
<g><path style="opacity:1" fill="#a70d19" d="M 48.5,87.5 C 49.209,86.596 50.209,86.2627 51.5,86.5C 51.5,88.5 51.5,90.5 51.5,92.5C 51.5,96.5 51.5,100.5 51.5,104.5C 50.8333,104.5 50.1667,104.5 49.5,104.5C 49.5,100.833 49.5,97.1667 49.5,93.5C 49.7947,91.2646 49.4614,89.2646 48.5,87.5 Z"/></g>
<g><path style="opacity:1" fill="#c9804a" d="M 51.5,92.5 C 51.8333,92.5 52.1667,92.5 52.5,92.5C 51.9197,96.649 52.5864,100.316 54.5,103.5C 53.791,104.404 52.791,104.737 51.5,104.5C 51.5,100.5 51.5,96.5 51.5,92.5 Z"/></g>
<g><path style="opacity:1" fill="#af2d27" d="M 34.5,87.5 C 35.1667,87.5 35.8333,87.5 36.5,87.5C 36.5,89.5 36.5,91.5 36.5,93.5C 36.1774,97.226 36.5108,100.893 37.5,104.5C 38.4742,102.257 38.8076,99.924 38.5,97.5C 39.8333,97.5 41.1667,97.5 42.5,97.5C 42.1924,99.924 42.5258,102.257 43.5,104.5C 44.4892,100.893 44.8226,97.226 44.5,93.5C 43.8333,86.8333 43.1667,86.8333 42.5,93.5C 42.38,94.5862 41.7133,95.2528 40.5,95.5C 39.2867,95.2528 38.62,94.5862 38.5,93.5C 38.5,91.5 38.5,89.5 38.5,87.5C 41.1667,87.5 43.8333,87.5 46.5,87.5C 46.185,91.3714 46.5184,95.0381 47.5,98.5C 47.0254,101.082 47.6921,103.082 49.5,104.5C 42.1102,105.852 34.7768,105.519 27.5,103.5C 29.8333,103.5 32.1667,103.5 34.5,103.5C 34.5,101.833 34.5,100.167 34.5,98.5C 32.2627,99.449 29.9294,100.116 27.5,100.5C 27.5,97.1667 27.5,93.8333 27.5,90.5C 28.5521,88.744 30.2188,88.0773 32.5,88.5C 32.238,89.9778 32.5713,91.3112 33.5,92.5C 34.4519,90.9547 34.7852,89.288 34.5,87.5 Z"/></g>
<g><path style="opacity:1" fill="#f3cf5d" d="M 36.5,93.5 C 37.1667,93.5 37.8333,93.5 38.5,93.5C 38.62,94.5862 39.2867,95.2528 40.5,95.5C 41.7133,95.2528 42.38,94.5862 42.5,93.5C 43.1667,93.5 43.8333,93.5 44.5,93.5C 44.8226,97.226 44.4892,100.893 43.5,104.5C 42.5258,102.257 42.1924,99.924 42.5,97.5C 41.1667,97.5 39.8333,97.5 38.5,97.5C 38.8076,99.924 38.4742,102.257 37.5,104.5C 36.5108,100.893 36.1774,97.226 36.5,93.5 Z"/></g>
<g><path style="opacity:1" fill="#f2d15c" d="M 63.5,89.5 C 63.5,93.1667 63.5,96.8333 63.5,100.5C 63.1667,100.5 62.8333,100.5 62.5,100.5C 61.5386,98.7354 61.2053,96.7354 61.5,94.5C 61.0773,92.2188 61.744,90.5521 63.5,89.5 Z"/></g>
<g><path style="opacity:1" fill="#edb55f" d="M 49.5,93.5 C 49.5,97.1667 49.5,100.833 49.5,104.5C 47.6921,103.082 47.0254,101.082 47.5,98.5C 47.0773,96.2188 47.744,94.5521 49.5,93.5 Z"/></g>
<g><path style="opacity:1" fill="#d08b7a" d="M 46.5,87.5 C 47.1667,87.5 47.8333,87.5 48.5,87.5C 49.4614,89.2646 49.7947,91.2646 49.5,93.5C 47.744,94.5521 47.0773,96.2188 47.5,98.5C 46.5184,95.0381 46.185,91.3714 46.5,87.5 Z"/></g>
<g><path style="opacity:1" fill="#d38b7c" d="M 63.5,83.5 C 63.5,85.5 63.5,87.5 63.5,89.5C 61.744,90.5521 61.0773,92.2188 61.5,94.5C 60.5206,91.3752 60.1872,88.0419 60.5,84.5C 61.391,83.8902 62.391,83.5569 63.5,83.5 Z"/></g>
<g><path style="opacity:1" fill="#a9181e" d="M 65.5,82.5 C 65.281,83.675 65.6143,84.675 66.5,85.5C 69.8145,83.7834 70.8145,84.4501 69.5,87.5C 68.3793,89.7415 67.2126,92.0748 66,94.5C 65.2204,96.3869 65.3871,98.0536 66.5,99.5C 65.791,100.404 64.791,100.737 63.5,100.5C 63.5,96.8333 63.5,93.1667 63.5,89.5C 63.5,87.5 63.5,85.5 63.5,83.5C 63.8417,82.6618 64.5084,82.3284 65.5,82.5 Z"/></g>
<g><path style="opacity:1" fill="#f1c959" d="M 69.5,87.5 C 70.1667,87.5 70.5,87.8333 70.5,88.5C 69.9862,90.3664 69.3195,92.1997 68.5,94C 68.8333,94.5 69.1667,95 69.5,95.5C 70.891,94.3554 72.2243,94.3554 73.5,95.5C 72.3757,96.8592 71.0423,97.8592 69.5,98.5C 68.391,98.5569 67.391,98.8902 66.5,99.5C 65.3871,98.0536 65.2204,96.3869 66,94.5C 67.2126,92.0748 68.3793,89.7415 69.5,87.5 Z"/></g>
<g><path style="opacity:1" fill="#aa121e" d="M 60.5,84.5 C 60.1872,88.0419 60.5206,91.3752 61.5,94.5C 61.2053,96.7354 61.5386,98.7354 62.5,100.5C 62.0269,101.906 61.0269,102.573 59.5,102.5C 59.719,101.325 59.3857,100.325 58.5,99.5C 57.2638,100.246 55.9305,100.579 54.5,100.5C 54.5,97.8333 54.5,95.1667 54.5,92.5C 54.5,90.5 54.5,88.5 54.5,86.5C 56.1016,84.9261 58.1016,84.2594 60.5,84.5 Z"/></g>
<g><path style="opacity:1" fill="#f7e5e4" d="M 44.5,93.5 C 43.8333,93.5 43.1667,93.5 42.5,93.5C 43.1667,86.8333 43.8333,86.8333 44.5,93.5 Z"/></g>
<g><path style="opacity:1" fill="#e2bbbe" d="M 36.5,87.5 C 37.1667,87.5 37.8333,87.5 38.5,87.5C 38.5,89.5 38.5,91.5 38.5,93.5C 37.8333,93.5 37.1667,93.5 36.5,93.5C 36.5,91.5 36.5,89.5 36.5,87.5 Z"/></g>
<g><path style="opacity:1" fill="#a51a23" d="M 80.5,76.5 C 80.8333,76.5 81.1667,76.5 81.5,76.5C 81.8333,76.5 82.1667,76.5 82.5,76.5C 81.8552,81.2926 80.5219,81.9592 78.5,78.5C 77.5344,80.396 77.2011,82.396 77.5,84.5C 76.931,88.3293 77.5977,91.6627 79.5,94.5C 77.7582,95.9573 75.7582,97.124 73.5,98C 72.2068,98.49 70.8734,98.6567 69.5,98.5C 71.0423,97.8592 72.3757,96.8592 73.5,95.5C 72.2243,94.3554 70.891,94.3554 69.5,95.5C 69.1667,95 68.8333,94.5 68.5,94C 69.3195,92.1997 69.9862,90.3664 70.5,88.5C 71.999,86.8357 72.999,84.8357 73.5,82.5C 73.2528,81.2867 72.5862,80.62 71.5,80.5C 74.2119,78.4319 77.2119,77.0986 80.5,76.5 Z"/></g>
<g><path style="opacity:1" fill="#f6d260" d="M 91.5,81.5 C 92.1667,81.5 92.8333,81.5 93.5,81.5C 93.5,84.8333 93.5,88.1667 93.5,91.5C 92.8333,91.5 92.1667,91.5 91.5,91.5C 91.5,88.1667 91.5,84.8333 91.5,81.5 Z"/></g>
<g><path style="opacity:1" fill="#ddb4b8" d="M 51.5,86.5 C 52.5,86.5 53.5,86.5 54.5,86.5C 54.5,88.5 54.5,90.5 54.5,92.5C 53.8333,92.5 53.1667,92.5 52.5,92.5C 52.1667,92.5 51.8333,92.5 51.5,92.5C 51.5,90.5 51.5,88.5 51.5,86.5 Z"/></g>
<g><path style="opacity:1" fill="#f1dedd" d="M 34.5,87.5 C 34.7852,89.288 34.4519,90.9547 33.5,92.5C 32.5713,91.3112 32.238,89.9778 32.5,88.5C 30.2188,88.0773 28.5521,88.744 27.5,90.5C 26.8333,90.5 26.1667,90.5 25.5,90.5C 25.2865,88.8561 25.6198,87.3561 26.5,86C 29.4071,85.2815 32.0738,85.7815 34.5,87.5 Z"/></g>
<g><path style="opacity:1" fill="#b22d1e" d="M 93.5,81.5 C 93.8333,81.5 94.1667,81.5 94.5,81.5C 96.3531,84.2084 97.3531,87.2084 97.5,90.5C 96.209,90.2627 95.209,90.596 94.5,91.5C 94.1667,91.5 93.8333,91.5 93.5,91.5C 93.5,88.1667 93.5,84.8333 93.5,81.5 Z"/></g>
<g><path style="opacity:1" fill="#ad2820" d="M 84.5,76.5 C 84.8417,75.6618 85.5084,75.3284 86.5,75.5C 86.1872,79.0419 86.5206,82.3752 87.5,85.5C 87.2011,87.604 87.5344,89.604 88.5,91.5C 89.487,88.2317 89.8204,84.8984 89.5,81.5C 89.5,80.8333 89.5,80.1667 89.5,79.5C 90.1667,79.8333 90.8333,80.1667 91.5,80.5C 91.5,80.8333 91.5,81.1667 91.5,81.5C 91.5,84.8333 91.5,88.1667 91.5,91.5C 87.6516,93.0042 83.6516,94.0042 79.5,94.5C 78.6653,86.4314 79.9986,85.7647 83.5,92.5C 83.8333,92 84.1667,91.5 84.5,91C 83.0944,89.022 82.0944,86.8553 81.5,84.5C 82.6935,81.9476 84.0268,79.4476 85.5,77C 85.2716,76.6012 84.9382,76.4346 84.5,76.5 Z"/></g>
<g><path style="opacity:1" fill="#f2d060" d="M 77.5,84.5 C 78.8333,84.5 80.1667,84.5 81.5,84.5C 82.0944,86.8553 83.0944,89.022 84.5,91C 84.1667,91.5 83.8333,92 83.5,92.5C 79.9986,85.7647 78.6653,86.4314 79.5,94.5C 77.5977,91.6627 76.931,88.3293 77.5,84.5 Z"/></g>
<g><path style="opacity:1" fill="#a63731" d="M 107.5,74.5 C 105.833,74.5 104.167,74.5 102.5,74.5C 102.5,76.5 102.5,78.5 102.5,80.5C 101.955,83.3556 102.122,86.3556 103,89.5C 105.312,89.9551 107.312,90.9551 109,92.5C 110.392,89.7216 110.892,86.7216 110.5,83.5C 110.567,82.0413 110.234,80.7079 109.5,79.5C 110.404,78.791 110.737,77.791 110.5,76.5C 111.651,81.6503 111.817,86.9836 111,92.5C 110.692,93.3081 110.192,93.9747 109.5,94.5C 106.506,96.0659 105.506,95.3992 106.5,92.5C 102.555,91.5091 98.5546,91.1758 94.5,91.5C 95.209,90.596 96.209,90.2627 97.5,90.5C 99.4023,87.6627 100.069,84.3293 99.5,80.5C 98.8333,72.5 98.1667,72.5 97.5,80.5C 97.631,81.2389 97.4643,81.9056 97,82.5C 96.7216,81.5842 96.2216,80.9175 95.5,80.5C 93.4764,74.1248 92.143,74.1248 91.5,80.5C 90.8333,80.1667 90.1667,79.8333 89.5,79.5C 89.8432,77.5168 89.1765,76.1834 87.5,75.5C 91.4064,74.0605 95.5731,73.3938 100,73.5C 102.69,73.5029 105.19,73.8362 107.5,74.5 Z"/></g>
<g><path style="opacity:1" fill="#f3cd5c" d="M 102.5,80.5 C 103.167,80.5 103.833,80.5 104.5,80.5C 104.5,82.8333 104.5,85.1667 104.5,87.5C 107.205,87.6198 107.872,86.6198 106.5,84.5C 107.689,83.5713 109.022,83.238 110.5,83.5C 110.892,86.7216 110.392,89.7216 109,92.5C 107.312,90.9551 105.312,89.9551 103,89.5C 102.122,86.3556 101.955,83.3556 102.5,80.5 Z"/></g>
<g><path style="opacity:1" fill="#f0cc65" d="M 89.5,81.5 C 89.8204,84.8984 89.487,88.2317 88.5,91.5C 87.5344,89.604 87.2011,87.604 87.5,85.5C 87.1568,83.5168 87.8235,82.1834 89.5,81.5 Z"/></g>
<g><path style="opacity:1" fill="#d69485" d="M 86.5,75.5 C 86.8333,75.5 87.1667,75.5 87.5,75.5C 89.1765,76.1834 89.8432,77.5168 89.5,79.5C 89.5,80.1667 89.5,80.8333 89.5,81.5C 87.8235,82.1834 87.1568,83.5168 87.5,85.5C 86.5206,82.3752 86.1872,79.0419 86.5,75.5 Z"/></g>
<g><path style="opacity:1" fill="#f5d662" d="M 95.5,80.5 C 96.2216,80.9175 96.7216,81.5842 97,82.5C 97.4643,81.9056 97.631,81.2389 97.5,80.5C 98.1667,80.5 98.8333,80.5 99.5,80.5C 100.069,84.3293 99.4023,87.6627 97.5,90.5C 97.3531,87.2084 96.3531,84.2084 94.5,81.5C 94.5,80.8333 94.8333,80.5 95.5,80.5 Z"/></g>
<g><path style="opacity:1" fill="#f3e0db" d="M 82.5,76.5 C 83.1667,76.5 83.8333,76.5 84.5,76.5C 84.9382,76.4346 85.2716,76.6012 85.5,77C 84.0268,79.4476 82.6935,81.9476 81.5,84.5C 80.1667,84.5 78.8333,84.5 77.5,84.5C 77.2011,82.396 77.5344,80.396 78.5,78.5C 80.5219,81.9592 81.8552,81.2926 82.5,76.5 Z"/></g>
<g><path style="opacity:1" fill="#edd0d1" d="M 71.5,80.5 C 72.5862,80.62 73.2528,81.2867 73.5,82.5C 72.999,84.8357 71.999,86.8357 70.5,88.5C 70.5,87.8333 70.1667,87.5 69.5,87.5C 70.8145,84.4501 69.8145,83.7834 66.5,85.5C 65.6143,84.675 65.281,83.675 65.5,82.5C 67.5786,82.0293 69.5786,81.3627 71.5,80.5 Z"/></g>
<g><path style="opacity:1" fill="#ab1820" d="M 109.5,79.5 C 110.234,80.7079 110.567,82.0413 110.5,83.5C 109.022,83.238 107.689,83.5713 106.5,84.5C 107.872,86.6198 107.205,87.6198 104.5,87.5C 104.5,85.1667 104.5,82.8333 104.5,80.5C 104.5,79.5 104.5,78.5 104.5,77.5C 106.554,77.3653 108.221,78.032 109.5,79.5 Z"/></g>
<g><path style="opacity:1" fill="#bb979e" d="M 51.5,78.5 C 50.3192,80.0672 48.6526,80.9005 46.5,81C 44.1902,81.4966 41.8568,81.6633 39.5,81.5C 43.3855,80.5099 47.3855,79.5099 51.5,78.5 Z"/></g>
<g><path style="opacity:1" fill="#f5e9e0" d="M 95.5,80.5 C 94.8333,80.5 94.5,80.8333 94.5,81.5C 94.1667,81.5 93.8333,81.5 93.5,81.5C 92.8333,81.5 92.1667,81.5 91.5,81.5C 91.5,81.1667 91.5,80.8333 91.5,80.5C 92.143,74.1248 93.4764,74.1248 95.5,80.5 Z"/></g>
<g><path style="opacity:1" fill="#f5e4e2" d="M 99.5,80.5 C 98.8333,80.5 98.1667,80.5 97.5,80.5C 98.1667,72.5 98.8333,72.5 99.5,80.5 Z"/></g>
<g><path style="opacity:1" fill="#f1dcdc" d="M 107.5,74.5 C 108.29,75.4013 109.29,76.0679 110.5,76.5C 110.737,77.791 110.404,78.791 109.5,79.5C 108.221,78.032 106.554,77.3653 104.5,77.5C 104.5,78.5 104.5,79.5 104.5,80.5C 103.833,80.5 103.167,80.5 102.5,80.5C 102.5,78.5 102.5,76.5 102.5,74.5C 104.167,74.5 105.833,74.5 107.5,74.5 Z"/></g>
<g><path style="opacity:1" fill="#ea4417" d="M 103.5,64.5 C 103.396,66.7028 102.73,68.7028 101.5,70.5C 96.888,71.2961 92.2214,71.9627 87.5,72.5C 86.4937,72.0623 86.4937,71.3957 87.5,70.5C 90.4488,69.3859 92.6155,67.3859 94,64.5C 97.1597,69.7525 100.326,69.7525 103.5,64.5 Z"/></g>
<g><path style="opacity:1" fill="#d3d5da" d="M 41.5,59.5 C 43.1667,59.5 44.8333,59.5 46.5,59.5C 46.5,60.8333 46.5,62.1667 46.5,63.5C 47.8333,63.5 49.1667,63.5 50.5,63.5C 51.9979,68.9965 49.9979,71.3298 44.5,70.5C 44.4456,68.368 43.4456,67.0347 41.5,66.5C 40.3139,64.2078 40.3139,61.8744 41.5,59.5 Z"/></g>
<g><path style="opacity:1" fill="#929ca8" d="M 41.5,59.5 C 40.3139,61.8744 40.3139,64.2078 41.5,66.5C 40.5041,66.4142 39.6708,66.7476 39,67.5C 38.0228,64.1827 38.8562,61.516 41.5,59.5 Z"/></g>
<g><path style="opacity:1" fill="#9facba" d="M 44.5,70.5 C 49.9979,71.3298 51.9979,68.9965 50.5,63.5C 55.7119,61.4932 55.7119,59.1599 50.5,56.5C 48.739,57.0351 47.4057,58.0351 46.5,59.5C 44.8333,59.5 43.1667,59.5 41.5,59.5C 42.9813,56.1126 45.648,54.7793 49.5,55.5C 58.4843,55.9474 61.6509,60.2807 59,68.5C 55.1956,68.7111 52.0289,70.2111 49.5,73C 52.2026,76.0368 51.3692,77.8701 47,78.5C 43.5255,77.6943 41.5255,75.6943 41,72.5C 42.5793,73.172 43.746,72.5053 44.5,70.5 Z"/></g>
<g><path style="opacity:1" fill="#0d1d30" d="M 50.5,63.5 C 49.1667,63.5 47.8333,63.5 46.5,63.5C 46.5,62.1667 46.5,60.8333 46.5,59.5C 47.4057,58.0351 48.739,57.0351 50.5,56.5C 55.7119,59.1599 55.7119,61.4932 50.5,63.5 Z"/></g>
<g><path style="opacity:1" fill="#be1925" d="M 69.5,101.5 C 71.8984,101.259 73.8984,101.926 75.5,103.5C 72.0306,106.326 68.0306,107.993 63.5,108.5C 59.8183,108.665 56.1516,108.499 52.5,108C 53.7375,107.768 54.7375,107.268 55.5,106.5C 60.0767,104.847 64.7434,103.18 69.5,101.5 Z"/></g>
<g><path style="opacity:1" fill="#93192b" d="M 55.5,106.5 C 54.7375,107.268 53.7375,107.768 52.5,108C 56.1516,108.499 59.8183,108.665 63.5,108.5C 58.5936,109.848 53.5936,109.682 48.5,108C 50.74,107.023 53.0733,106.523 55.5,106.5 Z"/></g>
</svg>
